<svg xmlns="http://www.w3.org/2000/svg" viewBox="0 0 411.96 122.05"><defs><style>.cls-1{fill:#efd422;}.cls-2{opacity:0.52;isolation:isolate;}.cls-3{fill:#4b4b4b;}</style></defs><title>logo</title><g id="レイヤー_2" data-name="レイヤー 2"><g id="レイヤー_1-2" data-name="レイヤー 1"><path d="M127.91,39.55H112.22l-3.17,10.38H102.4l15-46.28h5.23l15,46.28H131Zm-1.74-6.26L120.23,13h-.08L114.2,33.29Z"/><path d="M145.91,9.75H134.57V3.49H163.5V9.75H152.17v40.1h-6.26V9.75Z"/><path d="M178,9.75H166.67V3.49H195.6V9.75H184.26v40.1H178Z"/><path d="M218.58,39.55H202.89l-3.17,10.38h-6.66L208,3.65h5.23l15,46.28h-6.58Zm-1.82-6.26L210.81,13h-.08l-5.94,20.29Z"/><path d="M257.65,36.93a17.76,17.76,0,0,1-5.15,9.91,13.61,13.61,0,0,1-9.35,3.41A13.28,13.28,0,0,1,235,47.55a15.34,15.34,0,0,1-4.83-5.63c-.32-.71-.55-1.35-.79-2a14.29,14.29,0,0,1-.55-2.46,82.25,82.25,0,0,1-.4-10.7A98.85,98.85,0,0,1,228.8,16a13.91,13.91,0,0,1,1.43-4.44,15.56,15.56,0,0,1,4.83-5.71,13.57,13.57,0,0,1,8.16-2.62,13.32,13.32,0,0,1,9.75,4A17.73,17.73,0,0,1,257.73,17h-6.66a9.62,9.62,0,0,0-2.77-4.76,7.34,7.34,0,0,0-5.07-1.9,9,9,0,0,0-3.8,1,7.61,7.61,0,0,0-2.62,2.38,8.22,8.22,0,0,0-1.59,3.88,59.47,59.47,0,0,0-.48,9.35,57.57,57.57,0,0,0,.48,9.27A7.89,7.89,0,0,0,236.81,40a6.72,6.72,0,0,0,2.62,2.3,6.51,6.51,0,0,0,3.8,1c3.49,0,6.18-2.14,7.93-6.34l6.5-.08Z"/><path d="M263.12,3.57h6.26V27.42h.16l17-23.86H294L280.79,21.79l14.66,28.06H288L276.75,27.18l-7.29,8.56V49.85H263.2l-.08-46.28Z"/><path d="M127.91,110.08H112.22l-3.17,10.38H102.4l15-46.28h5.23l15,46.28H131Zm-1.74-6.26-5.94-20.29h-.08l-5.94,20.29Z"/><path d="M137.74,75.37H144v29.88a10,10,0,0,0,2.46,7.21,8.24,8.24,0,0,0,12,0c1.59-1.66,2.38-4,2.38-7.21V75.37h6.26V106c-.08,4.83-1.51,8.72-4.2,11.57a14.37,14.37,0,0,1-20.84.08c-2.85-2.85-4.28-6.74-4.28-11.57V75.37Z"/><path class="cls-1" d="M187,80.28H175.63V74h28.93v6.26H193.22v40.1H187V80.28Z"/><path d="M210.73,97.24a100.65,100.65,0,0,1,.4-10.86,13.91,13.91,0,0,1,1.43-4.44,15.56,15.56,0,0,1,4.83-5.71,14.17,14.17,0,0,1,16.41,0,15.07,15.07,0,0,1,4.68,5.71,10.84,10.84,0,0,1,1.43,4.44,98.85,98.85,0,0,1,.4,10.78,98.11,98.11,0,0,1-.4,10.7,11.24,11.24,0,0,1-1.43,4.52A14.28,14.28,0,0,1,233.8,118a13.86,13.86,0,0,1-8.24,2.69,13.28,13.28,0,0,1-8.16-2.69,15.34,15.34,0,0,1-4.83-5.63c-.32-.71-.55-1.35-.79-2a14.29,14.29,0,0,1-.55-2.46A76.4,76.4,0,0,1,210.73,97.24Zm6.26,0a57.57,57.57,0,0,0,.48,9.27,7.89,7.89,0,0,0,1.59,3.88,6.72,6.72,0,0,0,2.62,2.3,6.51,6.51,0,0,0,3.8,1,6.94,6.94,0,0,0,3.88-1,7.89,7.89,0,0,0,2.54-2.3,9.17,9.17,0,0,0,1.66-3.88,60.8,60.8,0,0,0,.4-9.27,76.4,76.4,0,0,0-.4-9.35A9.17,9.17,0,0,0,231.89,84a7.34,7.34,0,0,0-2.54-2.38,7.62,7.62,0,0,0-3.88-1,9,9,0,0,0-3.8,1A7.61,7.61,0,0,0,219.06,84a8.22,8.22,0,0,0-1.59,3.88A59.46,59.46,0,0,0,217,97.24Z"/><path d="M273.27,107.47a17.76,17.76,0,0,1-5.15,9.91,13.61,13.61,0,0,1-9.35,3.41,13.28,13.28,0,0,1-8.16-2.69,15.34,15.34,0,0,1-4.83-5.63c-.32-.71-.55-1.35-.79-2a14.29,14.29,0,0,1-.55-2.46,82.25,82.25,0,0,1-.4-10.7,98.85,98.85,0,0,1,.4-10.78,13.91,13.91,0,0,1,1.43-4.44,15.56,15.56,0,0,1,4.83-5.71,13.57,13.57,0,0,1,8.16-2.62,13.32,13.32,0,0,1,9.75,4,17.73,17.73,0,0,1,4.76,9.75h-6.66a9.62,9.62,0,0,0-2.77-4.76,7.34,7.34,0,0,0-5.07-1.9,9,9,0,0,0-3.8,1,7.61,7.61,0,0,0-2.62,2.38,8.22,8.22,0,0,0-1.59,3.88,59.47,59.47,0,0,0-.48,9.35,57.57,57.57,0,0,0,.48,9.27,7.89,7.89,0,0,0,1.59,3.88,6.72,6.72,0,0,0,2.62,2.3,6.51,6.51,0,0,0,3.8,1c3.49,0,6.18-2.14,7.93-6.34l6.5-.08Z"/><path d="M301.32,100.18H284.92v20.21h-6.26V74.1h6.26V94h16.41V74.1h6.26v46.28h-6.26Z"/><path d="M317.49,74.1h26.39v6.58H323.75V93.92h17.2v6.18h-17.2v13.71h20.13v6.58H317.49Z"/><path d="M351.33,109.21a17,17,0,0,0,11.73,4.6c5.39-.08,8.08-2.22,8.16-6.42,0-3.49-1.74-5.55-5.39-6.26-1.66-.24-3.49-.55-5.47-.87a12.73,12.73,0,0,1-8.08-4.44,13.28,13.28,0,0,1-2.85-8.56A13.75,13.75,0,0,1,353,77.43c2.3-2.46,5.63-3.72,9.91-3.72a22,22,0,0,1,13.39,4.76l-3.49,5.79a17.39,17.39,0,0,0-10.22-3.57,7.54,7.54,0,0,0-4.83,1.59,6.11,6.11,0,0,0-2.06,5,5.43,5.43,0,0,0,1.43,3.65,7.43,7.43,0,0,0,4.44,2.3c1.11.24,2.69.48,4.68.71,3.88.55,6.74,2.14,8.56,4.68a14.24,14.24,0,0,1,2.77,8.64c-.24,8.88-5.07,13.31-14.5,13.47a22,22,0,0,1-15.77-6.34Z"/><path d="M385.73,109.21a17,17,0,0,0,11.73,4.6c5.39-.08,8.08-2.22,8.16-6.42,0-3.49-1.74-5.55-5.39-6.26-1.66-.24-3.49-.55-5.47-.87a12.73,12.73,0,0,1-8.08-4.44,13.28,13.28,0,0,1-2.85-8.56,13.75,13.75,0,0,1,3.57-9.83c2.3-2.46,5.63-3.72,9.91-3.72a22,22,0,0,1,13.39,4.76l-3.49,5.79A17.39,17.39,0,0,0,397,80.68a7.54,7.54,0,0,0-4.83,1.59,6.11,6.11,0,0,0-2.06,5,5.43,5.43,0,0,0,1.43,3.65,7.43,7.43,0,0,0,4.44,2.3c1.11.24,2.69.48,4.68.71,3.88.55,6.74,2.14,8.56,4.68a14.24,14.24,0,0,1,2.77,8.64c-.24,8.88-5.07,13.31-14.5,13.47a22,22,0,0,1-15.77-6.34Z"/><path d="M178,34.16"/><rect x="295.3" width="30.35" height="30.35"/><rect x="325.65" y="31.54" width="30.35" height="30.35"/><rect class="cls-2" x="295.3" y="62.37" width="30.35" height="30.35"/><rect class="cls-2" x="325.65" y="90.51" width="30.35" height="30.35"/><path class="cls-3" d="M41.85,51.67a5.93,5.93,0,0,0,2-4.36,6.07,6.07,0,0,0-2-4.36,7.11,7.11,0,0,0-9.51,0,5.93,5.93,0,0,0-2,4.36,6.07,6.07,0,0,0,2,4.36,7.11,7.11,0,0,0,9.51,0Zm-7.53-4.28a2.58,2.58,0,0,1,.79-1.82,2.76,2.76,0,0,1,2-.71,3.34,3.34,0,0,1,2,.71,2.49,2.49,0,0,1,0,3.65,2.76,2.76,0,0,1-2,.71,3.34,3.34,0,0,1-2-.71A2.73,2.73,0,0,1,34.32,47.39Z"/><path class="cls-3" d="M102.47,42.72a50.16,50.16,0,0,0-.79-9.35,31.65,31.65,0,0,0-5-12A44.86,44.86,0,0,0,86.47,11,33.92,33.92,0,0,0,74.66,5.39,50.67,50.67,0,0,0,61.18,3.65,58.68,58.68,0,0,0,44.54,6l.32-.08L44.54,6a45.23,45.23,0,0,0-11.41,5l-10-3.41h0a2.19,2.19,0,0,0-.71-.08A2.15,2.15,0,0,0,21.08,8a1.8,1.8,0,0,0-.71,1.43l.08.4L25,29.24a71.43,71.43,0,0,0-5.07,7.21c-1.66,2.69-3.09,5.15-4.12,6.9l-.16.24V43c-1,1.59-2.3,3.88-3.72,6.5C7.21,57.78,1,69.11,1,69.11L.24,70.61h0a1.6,1.6,0,0,0-.24.87,1.82,1.82,0,0,0,1,1.59L21.87,84.48h0a2.44,2.44,0,0,0,1,.24,2.06,2.06,0,0,0,1.19-.32l5.39-3.49L24.41,98l-.63.79H23.7a1.92,1.92,0,0,0-2,1.51L18,118.56v.32a1.75,1.75,0,0,0,.48,1.19h-.08l1.59.79H97.16a2.21,2.21,0,0,0,1.59-.63h0a1.8,1.8,0,0,0,.48-1.27v-.24l-.32-2.06L96.29,99.94a1.94,1.94,0,0,0-1.74-1.59c1.35-7.13,4.2-22.27,6.34-37.49A136.18,136.18,0,0,0,102.47,42.72Zm-80,36.46L6.74,70.54C8,68.24,10.46,63.72,13.16,59c1.43-2.62,2.93-5.23,4.2-7.53s2.46-4.28,3.25-5.63c1.11-1.82,2.46-4.2,4-6.82a57.5,57.5,0,0,1,5.79-7.93l.55-.63L27.42,14.82,46.2,21.08l.55-.08a27.38,27.38,0,0,1,4.52-.4,33.34,33.34,0,0,1,22.59,8.56,27.81,27.81,0,0,1,9.35,20.61A128.28,128.28,0,0,1,82.11,65c-1,8.56-2.46,17.75-3.72,24.89-.63,3.57-1.19,6.58-1.59,8.72-.16.71-.24,1.35-.4,1.9H29.88L37.8,73.78l10.78-7.29L46.2,63.64,35,71.33Zm1.19,36.22,2.38-11.89,65.78-.16,1.82,12ZM95,60.23C93.6,70.61,91.78,81,90.35,88.84,89.64,92.73,89,96,88.61,98.27c-.16.87-.32,1.59-.4,2.14H80.52c.63-3.25,1.9-10,3.17-17.75.87-5.47,1.74-11.57,2.46-17.28a151.52,151.52,0,0,0,1.11-15.61A31.52,31.52,0,0,0,76.8,26.63,37.46,37.46,0,0,0,51.44,17a30.38,30.38,0,0,0-4.76.4l-8.8-2.93a43,43,0,0,1,8.48-3.41A54.55,54.55,0,0,1,61.26,9a44.25,44.25,0,0,1,11.81,1.51,29.93,29.93,0,0,1,9.75,4.6,41,41,0,0,1,6.58,6A27,27,0,0,1,95,30.75a36.89,36.89,0,0,1,1.66,12A173.18,173.18,0,0,1,95,60.23Z"/><path class="cls-3" d="M.55,73.15h0L.24,73Z"/><path class="cls-3" d="M20.76,7.61Z"/><path class="cls-1" d="M192.59,61.9a.77.77,0,0,1,.79.63l.24,4c0,.32.32.55.63.63l2.93.4a.8.8,0,0,0,.87-.48l1.27-4a.85.85,0,0,1,1-.48l4.2.87a.65.65,0,0,1,.55.79l-1,4a.62.62,0,0,0,.55.71l3.09.79a.86.86,0,0,0,1-.4l1.51-3.72a.86.86,0,0,1,1-.4l4,1a.59.59,0,0,1,.48.79l-5.23,14.42c-.24.71-1,.79-1.59.71A155.12,155.12,0,0,0,190.13,81a155.12,155.12,0,0,0-18.7,1.27c-.63.16-1.35.08-1.59-.71l-5.23-14.42a.59.59,0,0,1,.48-.79l4-1a.86.86,0,0,1,1,.4l1.51,3.72a.86.86,0,0,0,1,.4l3.09-.79a.62.62,0,0,0,.55-.71l-1-4c-.08-.32.16-.63.55-.79l4.2-.87a.81.81,0,0,1,1,.48l1.27,4c.08.32.48.48.87.48l2.93-.4c.4-.08.63-.32.63-.63l.24-4a.73.73,0,0,1,.79-.63Z"/></g></g></svg>